<svg xmlns="http://www.w3.org/2000/svg" xmlns:xlink="http://www.w3.org/1999/xlink" viewBox="0 0 587.29 538.64"><defs><style>.cls-1{fill:#ccc;}.cls-2{fill:#e6e6e6;}.cls-3{fill:#96cff0;}.cls-4{fill:#fff;}.cls-5{fill:#1a2453;}.cls-6{fill:#e6e7e8;}.cls-7{fill:#2896cd;}.cls-8{fill:none;}.cls-9{fill:#f8ada3;}.cls-10{fill:#f1f1f2;}.cls-11{fill:#fedf40;}.cls-12{fill:#d0d2d3;}.cls-13{fill:#e09d95;}.cls-14{fill:#2589bc;}.cls-15{fill:url(#linear-gradient);}.cls-16{fill:url(#linear-gradient-2);}.cls-17{fill:url(#radial-gradient);}.cls-18{fill:url(#radial-gradient-2);}</style><linearGradient id="linear-gradient" x1="133" y1="413.64" x2="0" y2="413.64" gradientUnits="userSpaceOnUse"><stop offset="0" stop-color="#ffdf3f" stop-opacity="0.8"/><stop offset="0.11" stop-color="#ffdf3f" stop-opacity="0.65"/><stop offset="0.27" stop-color="#ffdf3f" stop-opacity="0.45"/><stop offset="0.43" stop-color="#ffdf3f" stop-opacity="0.29"/><stop offset="0.59" stop-color="#ffdf3f" stop-opacity="0.16"/><stop offset="0.74" stop-color="#ffdf3f" stop-opacity="0.07"/><stop offset="0.88" stop-color="#ffdf3f" stop-opacity="0.02"/><stop offset="1" stop-color="#ffdf3f" stop-opacity="0"/></linearGradient><linearGradient id="linear-gradient-2" x1="226" y1="473.54" x2="100" y2="473.54" xlink:href="#linear-gradient"/><radialGradient id="radial-gradient" cx="413.8" cy="871.32" r="35.58" gradientTransform="matrix(0, 1.72, -1.47, 0, 1581.23, -507.83)" gradientUnits="userSpaceOnUse"><stop offset="0" stop-color="#4699d3" stop-opacity="0.8"/><stop offset="0.13" stop-color="#56a2d7" stop-opacity="0.73"/><stop offset="0.39" stop-color="#81b9e1" stop-opacity="0.55"/><stop offset="0.73" stop-color="#c5dff1" stop-opacity="0.25"/><stop offset="1" stop-color="#fff" stop-opacity="0"/></radialGradient><radialGradient id="radial-gradient-2" cx="362.65" cy="869.71" r="35.58" gradientTransform="matrix(0, 1.72, -1.47, 0, 1503.88, -465.91)" gradientUnits="userSpaceOnUse"><stop offset="0" stop-color="#f8ada3"/><stop offset="1" stop-color="#fff" stop-opacity="0"/></radialGradient></defs><g id="Layer_3" data-name="Layer 3"><polygon class="cls-1" points="520 153 461 171 461 20.21 522 3 520 153"/><polygon class="cls-2" points="451 18 457 21 522 3 516 0 451 18"/><path class="cls-3" d="M499.56,27.29a10.44,10.44,0,0,0-14.89,1.84l-.06.08c-10.09,13.08-8.48,30.59-7.49,37.17l1.64,1.37,34.69-4,1.75-2.28c-.41-6.61-2.57-23.29-14.79-33.5C500.13,27.74,499.84,27.51,499.56,27.29Z"/><polygon class="cls-1" points="541 175.64 577 242.64 577 91.86 542 25.64 541 175.64"/><polygon class="cls-2" points="582.29 88.78 576.29 91.78 542 25.64 547 22.64 582.29 88.78"/><polygon class="cls-4" points="214 402.64 196 393.64 211 232.64 228 240.64 214 402.64"/><polygon class="cls-5" points="486.59 321.61 504.7 337.68 542.65 277.77 514.62 254.98 477.84 301.8 486.59 321.61"/><polygon class="cls-5" points="316.6 414.98 334.71 431.05 372.66 371.14 344.63 348.35 307.85 395.17 316.6 414.98"/><polygon class="cls-4" points="181.26 188.47 451.95 32.17 587.29 110.32 316.6 266.62 181.26 188.47"/><polyline class="cls-4" points="316.6 422.91 248.93 461.99 248.93 383.84 316.6 266.62 316.6 247.08 181.26 168.93 181.26 188.47 113.58 305.69 113.58 383.84 248.93 461.99"/><path class="cls-6" d="M248.93,383.84V462l67.67-39.08c-3.42-59.85,55.76-86.52,67.67-39.07l101.51-58.61c10-64.44,48.7-74.5,67.68-39.08l33.83-19.53V90.78L316.6,247.08v19.54Z"/><polygon class="cls-7" points="181.26 205.35 299.24 268.43 240.25 378.83 124.15 311.79 181.26 205.35"/><polygon class="cls-7" points="324 270.89 266.98 373.42 384.27 305.69 384.27 235.84 324 270.89"/><polygon class="cls-4" points="181.26 168.93 451.95 12.63 587.29 90.78 316.6 247.08 181.26 168.93"/><line class="cls-8" x1="485.78" y1="325.23" x2="384.27" y2="383.84"/><path class="cls-8" d="M553.46,286.15c-19-35.42-57.7-25.36-67.68,39.08"/><polyline class="cls-8" points="316.6 266.62 316.6 247.08 587.29 90.78 587.29 110.32 587.29 266.62 553.46 286.15"/><polyline class="cls-9" points="390.74 231.27 582.36 119.79 582.36 129.86 390.74 240.56"/><polygon class="cls-9" points="253.8 394.12 253.72 406.87 582.42 216.65 582.5 204.51 253.8 394.12"/><path class="cls-8" d="M316.6,422.91c-3.42-59.85,55.76-86.52,67.67-39.07"/><ellipse class="cls-7" cx="352.23" cy="399.73" rx="36.21" ry="24.67" transform="translate(-150.53 576.02) rotate(-67.94)"/><polygon class="cls-9" points="470.85 198.51 497.28 183.72 497.09 206.13 519.62 193.46 519.6 219.02 500.44 229.19 500.71 248.93 474.98 262.55 474.71 242.88 448.21 256.72 447.6 232.7 471.13 219.69 470.85 198.51"/><ellipse class="cls-3" cx="354.93" cy="399.81" rx="20.87" ry="13.96" transform="translate(-148.93 578.57) rotate(-67.94)"/><ellipse class="cls-4" cx="353.99" cy="399.73" rx="11.27" ry="6.76" transform="translate(-149.44 577.65) rotate(-67.94)"/><ellipse class="cls-7" cx="522.23" cy="306.36" rx="36.21" ry="24.67" transform="translate(42.14 675.26) rotate(-67.94)"/><ellipse class="cls-3" cx="524.92" cy="306.44" rx="20.87" ry="13.96" transform="translate(43.74 677.81) rotate(-67.94)"/><ellipse class="cls-4" cx="523.98" cy="306.36" rx="11.27" ry="6.76" transform="translate(43.23 676.89) rotate(-67.94)"/><polygon class="cls-10" points="372.69 89.38 440.37 50.31 507.97 89.34 440.33 128.44 372.69 89.38"/><polygon class="cls-6" points="440.33 128.44 440.37 136.13 508.04 97.37 507.97 89.34 440.33 128.44"/><polygon class="cls-6" points="372.69 89.38 372.69 97.84 440.37 136.13 440.33 128.44 372.69 89.38"/><polygon class="cls-11" points="119.8 347.58 119.8 370.71 243.63 440.66 243.63 417.49 119.8 347.58"/><polygon class="cls-12" points="212.35 165.68 227.46 156.96 321.61 211.73 306.99 221.09 212.35 165.68"/><polygon class="cls-9" points="212.82 156.58 227.93 147.86 266.55 170.16 251.94 179.53 212.82 156.58"/><polygon class="cls-13" points="251.94 179.53 251.94 189.03 266.55 179.53 266.55 170.16 251.94 179.53"/><polygon class="cls-13" points="251.94 189.03 212.82 167.39 212.82 156.58 251.94 179.53 251.94 189.03"/><polygon class="cls-4" points="254.91 179.79 270.02 171.07 282.76 178.28 268.15 187.65 254.91 179.79"/><polygon class="cls-6" points="268.17 186.98 267.8 198.16 282.36 188.98 282.76 178.22 268.17 186.98"/><polygon class="cls-6" points="267.8 198.16 254.91 190.61 254.91 179.79 268.17 186.98 267.8 198.16"/><polygon class="cls-7" points="273.13 190.51 288.24 181.78 326.86 204.09 312.25 213.46 273.13 190.51"/><polygon class="cls-14" points="312.25 213.46 311.7 223.89 326.86 213.46 326.86 204.09 312.25 213.46"/><polygon class="cls-14" points="311.7 223.89 273.13 201.32 273.13 190.51 312.25 213.46 311.7 223.89"/><polygon class="cls-14" points="143.46 360.94 143.46 383.84 206.23 419.53 206.23 396.38 143.46 360.94"/><polygon class="cls-15" points="133 376.52 0 470.64 2 392.64 133 356.64 133 376.52"/><polygon class="cls-3" points="199 355.64 189.94 350.46 190 209.64 199 214.64 199 355.64"/><polygon class="cls-16" points="226 428.31 107 538.64 100 462.64 226 408.44 226 428.31"/><ellipse class="cls-17" cx="302.05" cy="203.54" rx="34.5" ry="76.5" transform="translate(-25.25 363.36) rotate(-60)"/><ellipse class="cls-18" cx="227.08" cy="157.52" rx="34.5" ry="76.5" transform="translate(-22.88 275.41) rotate(-60)"/></g></svg>